<svg width="24" height="24" viewBox="0 0 24 24" fill="currentcolor" xmlns="http://www.w3.org/2000/svg">
<path d="M11.4975 4.87055C11.0192 4.59441 10.8553 3.98282 11.1315 3.50453L12.1699 1.70598C12.446 1.22768 13.0576 1.06381 13.5359 1.33995C14.0142 1.61609 14.178 2.22768 13.9019 2.70598L12.8635 4.50453C12.5874 4.98282 11.9758 5.1467 11.4975 4.87055Z" />
<path fill-rule="evenodd" clip-rule="evenodd" d="M3.53593 18.6604C3.05764 18.3842 2.89377 17.7726 3.16991 17.2943L5.50439 13.2509C3.34803 11.0077 2.41436 8.60276 3.33972 6.99998C4.54921 4.90509 8.53339 4.87543 12.718 6.75652L13.768 4.93793C14.0441 4.45963 14.6557 4.29576 15.134 4.5719C15.6123 4.84804 15.7762 5.45963 15.5 5.93793L14.5001 7.66991C15.0932 8.01238 15.6553 8.37663 16.1821 8.75654L17.7321 6.0719C18.0082 5.59361 18.6198 5.42973 19.0981 5.70588C19.5764 5.98202 19.7403 6.59361 19.4641 7.0719L17.7562 10.0303C20.4289 12.4643 21.6854 15.2244 20.6602 17C19.2795 19.3914 14.283 19.0915 9.50007 16.3302L9.00004 17.1963C8.72389 17.6746 8.1123 17.8384 7.63401 17.5623C7.15572 17.2861 6.99184 16.6746 7.26798 16.1963L7.81803 15.2436C7.5409 15.0437 7.27351 14.8396 7.01644 14.6319L4.90196 18.2943C4.62582 18.7726 4.01423 18.9365 3.53593 18.6604ZM15.1764 10.4985C14.6619 10.118 14.1019 9.74942 13.5001 9.40196L12.5 11.1341L14.2321 12.1341L15.1764 10.4985ZM11.7123 8.49847L10.768 10.1341L9.03598 9.13414C8.55769 8.858 7.9461 9.02187 7.66996 9.50016C7.39381 9.97846 7.55769 10.59 8.03598 10.8662L14.9642 14.8662C15.4425 15.1423 16.0541 14.9785 16.3302 14.5002C16.6064 14.0219 16.4425 13.4103 15.9642 13.1341L16.7291 11.8092C17.3429 12.4045 17.8448 13.0036 18.2224 13.5756C19.2063 15.0657 19.0357 15.8137 18.9282 16C18.8207 16.1862 18.2581 16.708 16.4758 16.601C14.8269 16.502 12.6809 15.8572 10.5 14.5981C8.3191 13.3389 6.68763 11.8028 5.77751 10.4243C4.79369 8.93428 4.96424 8.18622 5.07177 7.99998C5.1793 7.81374 5.74186 7.29201 7.52419 7.39899C8.71804 7.47065 10.1726 7.82848 11.7123 8.49847Z" />
<path d="M9.23209 20.7943C8.95594 21.2726 9.11982 21.8842 9.59811 22.1604C10.0764 22.4365 10.688 22.2726 10.9641 21.7943L11.9641 20.0623C12.2403 19.584 12.0764 18.9724 11.5981 18.6963C11.1198 18.4201 10.5082 18.584 10.2321 19.0623L9.23209 20.7943Z" />
</svg>
