<svg width="24" height="24" viewBox="0 0 24 24" fill="currentcolor" xmlns="http://www.w3.org/2000/svg">
<path d="M21.056 12H19.056C18.7908 12 18.5364 12.1054 18.3489 12.2929C18.1614 12.4804 18.056 12.7348 18.056 13C18.056 13.2652 18.1614 13.5196 18.3489 13.7071C18.5364 13.8946 18.7908 14 19.056 14V16H17.87C17.9888 15.6798 18.0514 15.3415 18.055 15C18.055 14.3396 17.837 13.6977 17.435 13.1738C17.033 12.6499 16.4693 12.2733 15.8315 12.1024C15.1936 11.9314 14.5171 11.9758 13.907 12.2285C13.2969 12.4812 12.7872 12.9281 12.457 13.5C12.3903 13.6138 12.3468 13.7396 12.3289 13.8703C12.311 14.0009 12.3192 14.1338 12.3529 14.2613C12.3866 14.3888 12.4452 14.5084 12.5253 14.6132C12.6054 14.7179 12.7055 14.8058 12.8197 14.8718C12.9339 14.9377 13.06 14.9804 13.1908 14.9974C13.3216 15.0144 13.4544 15.0054 13.5817 14.9708C13.709 14.9363 13.8281 14.8769 13.9324 14.7961C14.0366 14.7153 14.1238 14.6146 14.189 14.5C14.2768 14.348 14.403 14.2217 14.555 14.134C14.707 14.0462 14.8795 14 15.055 14C15.3202 14 15.5746 14.1054 15.7621 14.2929C15.9496 14.4804 16.055 14.7348 16.055 15C16.055 15.2652 15.9496 15.5196 15.7621 15.7071C15.5746 15.8946 15.3202 16 15.055 16C14.7898 16 14.5354 16.1054 14.3479 16.2929C14.1604 16.4804 14.055 16.7348 14.055 17C14.055 17.2652 14.1604 17.5196 14.3479 17.7071C14.5354 17.8946 14.7898 18 15.055 18C15.3202 18 15.5746 18.1054 15.7621 18.2929C15.9496 18.4804 16.055 18.7348 16.055 19C16.055 19.2652 15.9496 19.5196 15.7621 19.7071C15.5746 19.8946 15.3202 20 15.055 20C14.8795 20 14.707 19.9538 14.555 19.866C14.403 19.7783 14.2768 19.652 14.189 19.5C14.1238 19.3854 14.0366 19.2847 13.9324 19.2039C13.8281 19.1231 13.709 19.0637 13.5817 19.0292C13.4544 18.9946 13.3216 18.9856 13.1908 19.0026C13.06 19.0196 12.9339 19.0623 12.8197 19.1282C12.7055 19.1942 12.6054 19.2821 12.5253 19.3868C12.4452 19.4916 12.3866 19.6112 12.3529 19.7387C12.3192 19.8662 12.311 19.9991 12.3289 20.1297C12.3468 20.2604 12.3903 20.3862 12.457 20.5C12.7872 21.0719 13.2969 21.5188 13.907 21.7715C14.5171 22.0242 15.1936 22.0686 15.8315 21.8976C16.4693 21.7267 17.033 21.3501 17.435 20.8262C17.837 20.3023 18.055 19.6604 18.055 19C18.0514 18.6585 17.9888 18.3202 17.87 18H19.055V21C19.055 21.2652 19.1604 21.5196 19.3479 21.7071C19.5354 21.8946 19.7898 22 20.055 22C20.3202 22 20.5746 21.8946 20.7621 21.7071C20.9496 21.5196 21.055 21.2652 21.055 21V14C21.3202 14 21.5746 13.8946 21.7621 13.7071C21.9496 13.5196 22.055 13.2652 22.055 13C22.055 12.7348 21.9496 12.4804 21.7621 12.2929C21.5746 12.1054 21.3212 12 21.056 12ZM9.086 11.243C9.11714 11.3712 9.17334 11.492 9.25136 11.5983C9.32938 11.7047 9.42768 11.7946 9.54059 11.8628C9.6535 11.9311 9.7788 11.9763 9.90926 11.9958C10.0397 12.0154 10.1728 12.009 10.3007 11.977C10.4287 11.9449 10.5491 11.8878 10.6549 11.8091C10.7607 11.7303 10.8499 11.6313 10.9173 11.5179C10.9847 11.4045 11.029 11.2789 11.0477 11.1483C11.0663 11.0177 11.059 10.8847 11.026 10.757L9.269 3.727C9.14609 3.23318 8.86151 2.79468 8.46057 2.4813C8.05963 2.16792 7.56538 1.99768 7.0565 1.99768C6.54761 1.99768 6.05336 2.16792 5.65242 2.4813C5.25148 2.79468 4.9669 3.23318 4.844 3.727L3.086 10.757C3.05302 10.8847 3.04565 11.0177 3.06431 11.1483C3.08296 11.2789 3.12727 11.4045 3.19469 11.5179C3.2621 11.6313 3.35129 11.7303 3.45711 11.8091C3.56293 11.8878 3.68329 11.9449 3.81125 11.977C3.93922 12.009 4.07227 12.0154 4.20273 11.9958C4.33319 11.9763 4.45849 11.9311 4.5714 11.8628C4.68431 11.7946 4.78261 11.7047 4.86063 11.5983C4.93865 11.492 4.99485 11.3712 5.026 11.243L5.585 9H8.525L9.086 11.243ZM6.086 7L6.783 4.213C6.80402 4.15761 6.84139 4.10993 6.89015 4.07628C6.93891 4.04263 6.99675 4.02461 7.056 4.02461C7.11524 4.02461 7.17308 4.04263 7.22184 4.07628C7.2706 4.10993 7.30797 4.15761 7.329 4.213L8.026 7H6.086ZM14.056 7H15.056C15.3211 7.00026 15.5753 7.10571 15.7628 7.29319C15.9503 7.48066 16.0557 7.73486 16.056 8V9C16.056 9.26522 16.1614 9.51957 16.3489 9.70711C16.5364 9.89464 16.7908 10 17.056 10C17.3212 10 17.5756 9.89464 17.7631 9.70711C17.9506 9.51957 18.056 9.26522 18.056 9V8C18.0552 7.20459 17.7389 6.44199 17.1764 5.87956C16.614 5.31712 15.8514 5.00079 15.056 5H14.056C13.7908 5 13.5364 5.10536 13.3489 5.29289C13.1614 5.48043 13.056 5.73478 13.056 6C13.056 6.26522 13.1614 6.51957 13.3489 6.70711C13.5364 6.89464 13.7908 7 14.056 7ZM10.056 16H9.056C8.79086 15.9997 8.53666 15.8943 8.34918 15.7068C8.1617 15.5193 8.05626 15.2651 8.056 15V14C8.056 13.7348 7.95064 13.4804 7.7631 13.2929C7.57557 13.1054 7.32121 13 7.056 13C6.79078 13 6.53643 13.1054 6.34889 13.2929C6.16135 13.4804 6.056 13.7348 6.056 14V15C6.05679 15.7954 6.37312 16.558 6.93555 17.1204C7.49799 17.6829 8.26059 17.9992 9.056 18H10.056C10.3212 18 10.5756 17.8946 10.7631 17.7071C10.9506 17.5196 11.056 17.2652 11.056 17C11.056 16.7348 10.9506 16.4804 10.7631 16.2929C10.5756 16.1054 10.3212 16 10.056 16Z"/>
</svg>
